<?xml version="1.0" standalone="no"?>
<!DOCTYPE svg PUBLIC "-//W3C//DTD SVG 20010904//EN"
 "http://www.w3.org/TR/2001/REC-SVG-20010904/DTD/svg10.dtd">
<svg version="1.0" xmlns="http://www.w3.org/2000/svg"
 width="500.000000pt" height="500.000000pt" viewBox="0 0 500.000000 500.000000"
 preserveAspectRatio="xMidYMid meet">
<metadata>
Created by potrace 1.14, written by Peter Selinger 2001-2017
</metadata>
<g transform="translate(0.000000,500.000000) scale(0.100000,-0.100000)"
fill="#000000" stroke="none">
<path d="M2489 4835 c-3 -2 -49 -5 -104 -6 -81 -1 -275 -28 -380 -52 -110 -26
-355 -105 -400 -130 -11 -6 -22 -12 -25 -12 -3 -1 -38 -18 -79 -38 -364 -183
-691 -484 -902 -832 -155 -254 -248 -516 -304 -850 -23 -137 -23 -496 0 -614
2 -10 6 -36 10 -57 12 -80 16 -101 36 -174 11 -41 22 -83 24 -94 19 -83 103
-285 172 -416 240 -454 641 -815 1123 -1013 83 -34 170 -66 200 -72 8 -2 42
-11 75 -19 33 -9 71 -19 85 -21 14 -3 35 -7 46 -9 216 -44 556 -53 744 -21
206 35 218 37 336 73 381 114 763 360 1029 663 217 247 394 581 475 895 31
119 32 125 49 234 29 182 32 524 6 644 -2 11 -7 39 -10 61 -24 179 -108 433
-211 638 -104 208 -236 390 -403 557 -370 369 -751 558 -1306 648 -27 5 -99 9
-160 11 -60 1 -112 4 -116 7 -3 2 -8 2 -10 -1z"/>
</g>
</svg>
